<svg class="animated" id="freepik_stories-online-world" xmlns="http://www.w3.org/2000/svg" viewBox="0 0 500 500" version="1.1" xmlns:xlink="http://www.w3.org/1999/xlink" xmlns:svgjs="http://svgjs.com/svgjs"><style>svg#freepik_stories-online-world:not(.animated) .animable {opacity: 0;}svg#freepik_stories-online-world.animated #freepik--background-complete--inject-11 {animation: 6s Infinite  linear floating;animation-delay: 0s;}svg#freepik_stories-online-world.animated #freepik--online-world--inject-11 {animation: 3s Infinite  linear floating;animation-delay: 0s;}            @keyframes floating {                0% {                    opacity: 1;                    transform: translateY(0px);                }                50% {                    transform: translateY(-10px);                }                100% {                    opacity: 1;                    transform: translateY(0px);                }            }        </style><g id="freepik--background-complete--inject-11" class="animable" style="transform-origin: 250px 228.23px;"><rect y="382.4" width="500" height="0.25" style="fill: rgb(235, 235, 235); transform-origin: 250px 382.525px;" id="el3itglrwdgpf" class="animable"></rect><rect x="52.46" y="391.92" width="21.21" height="0.25" style="fill: rgb(235, 235, 235); transform-origin: 63.065px 392.045px;" id="el2n2vgn6fty4" class="animable"></rect><rect x="171.14" y="389.21" width="84.97" height="0.25" style="fill: rgb(235, 235, 235); transform-origin: 213.625px 389.335px;" id="el6kjz7hzwat4" class="animable"></rect><rect x="67.67" y="401.21" width="38.11" height="0.25" style="fill: rgb(235, 235, 235); transform-origin: 86.725px 401.335px;" id="elidt2j5b6c3" class="animable"></rect><rect x="406.71" y="399.53" width="43.19" height="0.25" style="fill: rgb(235, 235, 235); transform-origin: 428.305px 399.655px;" id="elv1ezuifxqfa" class="animable"></rect><rect x="391.47" y="399.53" width="11.97" height="0.25" style="fill: rgb(235, 235, 235); transform-origin: 397.455px 399.655px;" id="eluon3sfagrhs" class="animable"></rect><rect x="347.89" y="395.31" width="23" height="0.25" style="fill: rgb(235, 235, 235); transform-origin: 359.39px 395.435px;" id="elie8mbfltos" class="animable"></rect><rect x="287.89" y="395.31" width="48.44" height="0.25" style="fill: rgb(235, 235, 235); transform-origin: 312.11px 395.435px;" id="elmij2kh9i70e" class="animable"></rect><path d="M237,337.8H43.91a5.71,5.71,0,0,1-5.7-5.71V60.66A5.71,5.71,0,0,1,43.91,55H237a5.71,5.71,0,0,1,5.71,5.71V332.09A5.71,5.71,0,0,1,237,337.8ZM43.91,55.2a5.46,5.46,0,0,0-5.45,5.46V332.09a5.46,5.46,0,0,0,5.45,5.46H237a5.47,5.47,0,0,0,5.46-5.46V60.66A5.47,5.47,0,0,0,237,55.2Z" style="fill: rgb(235, 235, 235); transform-origin: 140.46px 196.4px;" id="elzd8cw0miry" class="animable"></path><path d="M453.31,337.8H260.21a5.72,5.72,0,0,1-5.71-5.71V60.66A5.72,5.72,0,0,1,260.21,55h193.1A5.71,5.71,0,0,1,459,60.66V332.09A5.71,5.71,0,0,1,453.31,337.8ZM260.21,55.2a5.47,5.47,0,0,0-5.46,5.46V332.09a5.47,5.47,0,0,0,5.46,5.46h193.1a5.47,5.47,0,0,0,5.46-5.46V60.66a5.47,5.47,0,0,0-5.46-5.46Z" style="fill: rgb(235, 235, 235); transform-origin: 356.75px 196.4px;" id="elmgv9we6bm08" class="animable"></path><g id="el0b24g118an0a"><rect x="416.32" y="229.22" width="24" height="148.05" style="fill: rgb(240, 240, 240); transform-origin: 428.32px 303.245px; transform: rotate(180deg);" class="animable"></rect></g><g id="eljo2omoj1rbb"><rect x="284.9" y="377.28" width="152.97" height="5.11" style="fill: rgb(240, 240, 240); transform-origin: 361.385px 379.835px; transform: rotate(180deg);" class="animable"></rect></g><rect x="282.79" y="229.22" width="133.53" height="148.05" style="fill: rgb(245, 245, 245); transform-origin: 349.555px 303.245px;" id="elrbnxb5an3sg" class="animable"></rect><rect x="287.11" y="306.32" width="124.89" height="26.44" style="fill: rgb(240, 240, 240); transform-origin: 349.555px 319.54px;" id="el66ni4uv9fu" class="animable"></rect><rect x="287.11" y="340.92" width="124.89" height="26.44" style="fill: rgb(240, 240, 240); transform-origin: 349.555px 354.14px;" id="elk9w6svdqfwf" class="animable"></rect><g id="elaaczctz7zxn"><rect x="297.62" y="304.69" width="103.87" height="3.63" rx="1.18" style="fill: rgb(245, 245, 245); transform-origin: 349.555px 306.505px; transform: rotate(180deg);" class="animable"></rect></g><g id="elbl113ak04s5"><rect x="297.62" y="339.3" width="103.87" height="3.63" rx="1.18" style="fill: rgb(245, 245, 245); transform-origin: 349.555px 341.115px; transform: rotate(180deg);" class="animable"></rect></g><rect x="287.11" y="237.39" width="124.89" height="26.44" style="fill: rgb(240, 240, 240); transform-origin: 349.555px 250.61px;" id="elq39d2j3al0n" class="animable"></rect><rect x="287.11" y="271.71" width="124.89" height="26.44" style="fill: rgb(240, 240, 240); transform-origin: 349.555px 284.93px;" id="eltchc4vlpzt" class="animable"></rect><g id="elum3kpha7rd"><rect x="297.62" y="235.77" width="103.87" height="3.63" rx="1.18" style="fill: rgb(245, 245, 245); transform-origin: 349.555px 237.585px; transform: rotate(180deg);" class="animable"></rect></g><g id="elulgcsfto3zb"><rect x="297.62" y="270.09" width="103.87" height="3.63" rx="1.18" style="fill: rgb(245, 245, 245); transform-origin: 349.555px 271.905px; transform: rotate(180deg);" class="animable"></rect></g><path d="M366.3,201A9.57,9.57,0,1,1,356,192.2,9.57,9.57,0,0,1,366.3,201Z" style="fill: rgb(224, 224, 224); transform-origin: 356.759px 201.74px;" id="elfv862em6o1n" class="animable"></path><path d="M350,207.3a7.16,7.16,0,1,1-7.72-6.55A7.16,7.16,0,0,1,350,207.3Z" style="fill: rgb(224, 224, 224); transform-origin: 342.864px 207.886px;" id="elcjd15mtkeb8" class="animable"></path><g id="el8jfztefiy0t"><circle cx="328.22" cy="207.2" r="9.3" style="fill: rgb(224, 224, 224); transform-origin: 328.22px 207.2px; transform: rotate(-49.7deg);" class="animable"></circle></g><path d="M375,207.3a7.16,7.16,0,1,1-7.72-6.55A7.15,7.15,0,0,1,375,207.3Z" style="fill: rgb(224, 224, 224); transform-origin: 367.864px 207.886px;" id="elj5wpufaped" class="animable"></path><path d="M327.17,207.3a7.16,7.16,0,1,1-7.72-6.55A7.16,7.16,0,0,1,327.17,207.3Z" style="fill: rgb(224, 224, 224); transform-origin: 320.034px 207.886px;" id="elj50rt5imuh" class="animable"></path><path d="M380.47,205.28a5.07,5.07,0,1,1-5.47-4.64A5.06,5.06,0,0,1,380.47,205.28Z" style="fill: rgb(224, 224, 224); transform-origin: 375.417px 205.692px;" id="elf1zobsef9hb" class="animable"></path><path d="M394.79,205.68a7.16,7.16,0,1,1-7.73-6.55A7.17,7.17,0,0,1,394.79,205.68Z" style="fill: rgb(224, 224, 224); transform-origin: 387.654px 206.266px;" id="el9shoz6a4dmf" class="animable"></path><path d="M403,207.36s-1.23,21.86-48.32,21.86-48.32-21.86-48.32-21.86Z" style="fill: rgb(240, 240, 240); transform-origin: 354.68px 218.29px;" id="elhoqbzrritlh" class="animable"></path><polygon points="94 184.3 219.75 184.3 211.91 382.43 86.16 382.43 94 184.3" style="fill: rgb(240, 240, 240); transform-origin: 152.955px 283.365px;" id="elvxsigdt8kiq" class="animable"></polygon><polygon points="92.18 184.3 217.93 184.3 210.09 382.43 84.33 382.43 92.18 184.3" style="fill: rgb(245, 245, 245); transform-origin: 151.13px 283.365px;" id="el6wpcobgcgd6" class="animable"></polygon><path d="M122,220.62c15.47-22.45,54.42-11.3,59.76,11.31s-11,75.65-43.58,68.83S93.15,262.45,122,220.62Z" style="fill: rgb(250, 250, 250); transform-origin: 144.296px 254.864px;" id="elxik33uymhv" class="animable"></path><path d="M177.29,346.28c-7.94,7.44-22.18-.23-22.33-9.5s10.73-28.57,22.86-23.12S192.1,332.43,177.29,346.28Z" style="fill: rgb(250, 250, 250); transform-origin: 171.313px 330.99px;" id="elmo9xo7hbj8" class="animable"></path><g id="elwk5aw583p4"><rect x="86.42" y="70.15" width="334.2" height="79.64" style="fill: rgb(230, 230, 230); transform-origin: 253.52px 109.97px; transform: rotate(180deg);" class="animable"></rect></g><g id="eljspsyfp8w9"><rect x="82.71" y="70.15" width="336.17" height="79.64" style="fill: rgb(240, 240, 240); transform-origin: 250.795px 109.97px; transform: rotate(180deg);" class="animable"></rect></g><g id="elw1fripghhre"><rect x="86.42" y="149.8" width="334.2" height="1.82" style="fill: rgb(230, 230, 230); transform-origin: 253.52px 150.71px; transform: rotate(180deg);" class="animable"></rect></g><g id="elr712m13z30q"><rect x="76.53" y="149.8" width="336.17" height="1.82" style="fill: rgb(240, 240, 240); transform-origin: 244.615px 150.71px; transform: rotate(180deg);" class="animable"></rect></g><g id="elxyvlohnjalh"><rect x="216.17" y="-52.91" width="69.25" height="325.78" style="fill: rgb(250, 250, 250); transform-origin: 250.795px 109.98px; transform: rotate(90deg);" class="animable"></rect></g><polygon points="208.34 144.6 193.88 75.35 171.31 75.35 185.77 144.6 208.34 144.6" style="fill: rgb(255, 255, 255); transform-origin: 189.825px 109.975px;" id="elslyrq61pbdj" class="animable"></polygon><polygon points="364.5 144.6 350.05 75.35 327.48 75.35 341.94 144.6 364.5 144.6" style="fill: rgb(255, 255, 255); transform-origin: 345.99px 109.975px;" id="eloeyab33rswr" class="animable"></polygon><path d="M411.28,139.43a.37.37,0,0,0,.37-.37V78.73a.38.38,0,0,0-.37-.37.37.37,0,0,0-.37.37v60.33A.36.36,0,0,0,411.28,139.43Z" style="fill: rgb(240, 240, 240); transform-origin: 411.28px 108.895px;" id="elw1uxxlc3mbs" class="animable"></path><polygon points="180.93 144.6 166.47 75.35 157.67 75.35 172.13 144.6 180.93 144.6" style="fill: rgb(255, 255, 255); transform-origin: 169.3px 109.975px;" id="el8wl2hw2a2rq" class="animable"></polygon><g id="elk6ct77rme3"><rect x="53.61" y="109.65" width="69.25" height="0.66" style="fill: rgb(230, 230, 230); transform-origin: 88.235px 109.98px; transform: rotate(90deg);" class="animable"></rect></g><g id="el3lw2sq0utwh"><polygon points="81.48 83.18 415.68 83.18 416.15 77.37 81.96 77.37 81.48 83.18" style="fill: rgb(235, 235, 235); opacity: 0.6; transform-origin: 248.815px 80.275px;" class="animable"></polygon></g><g id="elno2bc2t70t"><polygon points="81.48 86.46 415.68 86.46 416.15 80.65 81.96 80.65 81.48 86.46" style="fill: rgb(235, 235, 235); opacity: 0.6; transform-origin: 248.815px 83.555px;" class="animable"></polygon></g><g id="elpn42ljajwtj"><polygon points="81.48 89.74 415.68 89.74 416.15 83.93 81.96 83.93 81.48 89.74" style="fill: rgb(235, 235, 235); opacity: 0.6; transform-origin: 248.815px 86.835px;" class="animable"></polygon></g><g id="elyrqp5cdvj5"><polygon points="81.48 93.02 415.68 93.02 416.15 87.21 81.96 87.21 81.48 93.02" style="fill: rgb(235, 235, 235); opacity: 0.6; transform-origin: 248.815px 90.115px;" class="animable"></polygon></g><g id="elvd020m7fxia"><polygon points="81.48 96.3 415.68 96.3 416.15 90.49 81.96 90.49 81.48 96.3" style="fill: rgb(235, 235, 235); opacity: 0.6; transform-origin: 248.815px 93.395px;" class="animable"></polygon></g><g id="el4yf70hm6dkp"><polygon points="81.48 99.58 415.68 99.58 416.15 93.77 81.96 93.77 81.48 99.58" style="fill: rgb(235, 235, 235); opacity: 0.6; transform-origin: 248.815px 96.675px;" class="animable"></polygon></g></g><g id="freepik--Shadow--inject-11" class="animable" style="transform-origin: 250px 416.24px;"><ellipse id="freepik--path--inject-11" cx="250" cy="416.24" rx="193.89" ry="11.32" style="fill: rgb(245, 245, 245); transform-origin: 250px 416.24px;" class="animable"></ellipse></g><g id="freepik--online-world--inject-11" class="animable" style="transform-origin: 303.112px 263.84px;"><path d="M364.14,416.24H234.88a13.94,13.94,0,0,1-14-14.62l11.75-275.56a15.44,15.44,0,0,1,15.24-14.62H377.13a13.93,13.93,0,0,1,14,14.62L379.38,401.62A15.45,15.45,0,0,1,364.14,416.24Z" style="fill: rgb(0, 255, 136); transform-origin: 306.005px 263.84px;" id="el03n7xb693cgi" class="animable"></path><path d="M385.62,221.17h-.89a3.13,3.13,0,0,1-3.14-3.28l2.21-51.8a3.47,3.47,0,0,1,3.42-3.28h.89a3.12,3.12,0,0,1,3.13,3.28l-2.2,51.8A3.47,3.47,0,0,1,385.62,221.17Z" style="fill: rgb(0, 255, 136); transform-origin: 386.415px 191.99px;" id="elh6eq7s6lqkb" class="animable"></path><path d="M229.46,182.79h-2.25a2.46,2.46,0,0,1-2.48-2.59l.63-14.79a2.74,2.74,0,0,1,2.7-2.6h2.25a2.48,2.48,0,0,1,2.49,2.6l-.63,14.79A2.74,2.74,0,0,1,229.46,182.79Z" style="fill: rgb(38, 50, 56); transform-origin: 228.765px 172.8px;" id="elc1eir64kf5v" class="animable"></path><path d="M228.34,209.21h-2.26a2.47,2.47,0,0,1-2.48-2.59l.63-14.8a2.74,2.74,0,0,1,2.7-2.59h2.26a2.47,2.47,0,0,1,2.48,2.59l-.63,14.8A2.74,2.74,0,0,1,228.34,209.21Z" style="fill: rgb(38, 50, 56); transform-origin: 227.635px 199.22px;" id="eloiiqb16pabl" class="animable"></path><path d="M360.66,416.24H231.4a13.92,13.92,0,0,1-14-14.62l11.74-275.56a15.44,15.44,0,0,1,15.24-14.62H373.65a13.93,13.93,0,0,1,14,14.62L375.9,401.62A15.44,15.44,0,0,1,360.66,416.24Z" style="fill: rgb(38, 50, 56); transform-origin: 302.525px 263.84px;" id="eljj69jd1snw9" class="animable"></path><g id="elh25y0kp4mwn"><path d="M360.66,416.24H231.4a13.92,13.92,0,0,1-14-14.62l11.74-275.56a15.44,15.44,0,0,1,15.24-14.62H373.65a13.93,13.93,0,0,1,14,14.62L375.9,401.62A15.44,15.44,0,0,1,360.66,416.24Z" style="fill: rgb(0, 255, 136); opacity: 0.6; transform-origin: 302.525px 263.84px;" class="animable"></path></g><g id="elouirzzzjmv"><path d="M306.66,397.65a10.37,10.37,0,0,1-10.26,9.84,9.34,9.34,0,0,1-9.41-9.84,10.35,10.35,0,0,1,10.25-9.83A9.35,9.35,0,0,1,306.66,397.65Z" style="fill: rgb(0, 255, 136); opacity: 0.5; transform-origin: 296.824px 397.655px;" class="animable"></path></g><g id="elwle60o97fvk"><path d="M369.93,380.46H225.17a3.22,3.22,0,0,1-3.24-3.39L232,141a3.56,3.56,0,0,1,3.53-3.39H380.28a3.22,3.22,0,0,1,3.25,3.39L373.47,377.07A3.57,3.57,0,0,1,369.93,380.46Z" style="fill: rgb(255, 255, 255); opacity: 0.8; transform-origin: 302.73px 259.035px;" class="animable"></path></g><g id="el7wbcvn6p4pj"><path d="M280.33,124.4a4.2,4.2,0,0,1,4.15-4,3.78,3.78,0,0,1,3.81,4,4.19,4.19,0,0,1-4.15,4A3.78,3.78,0,0,1,280.33,124.4Z" style="fill: rgb(0, 255, 136); opacity: 0.5; transform-origin: 284.31px 124.4px;" class="animable"></path></g><g id="elpy9kq2794ii"><path d="M298.24,120.41h33.1a3.8,3.8,0,0,1,3.81,4h0a4.2,4.2,0,0,1-4.15,4H297.9a3.79,3.79,0,0,1-3.81-4h0A4.21,4.21,0,0,1,298.24,120.41Z" style="fill: rgb(0, 255, 136); opacity: 0.5; transform-origin: 314.62px 124.41px;" class="animable"></path></g><g id="elmv84k4ppc7d"><ellipse cx="301.7" cy="272.14" rx="62.62" ry="60" style="fill: rgb(255, 255, 255); transform-origin: 301.7px 272.14px; transform: rotate(-44.39deg);" class="animable"></ellipse></g><polygon points="312.23 262.25 313.18 262.25 315.36 261.15 317.06 261.15 318.52 261.83 320.12 261.83 320.73 261.48 320.77 260.49 319.89 260.08 318.65 258.79 318.7 257.55 317.71 257.55 316.87 258.36 315.76 257.19 314.47 257.19 312.36 260.68 312.82 261.52 312.12 261.98 312.23 262.25" style="fill: rgb(0, 255, 136); transform-origin: 316.445px 259.72px;" id="elymtnpaewup" class="animable"></polygon><polygon points="325.04 263.19 324.99 264.4 326.06 265.53 328.27 265.53 328.36 263.22 327.87 263.22 327.96 261.05 327.05 260.1 327.11 258.6 328.06 258.6 328.12 257.28 326.74 257.09 324.41 259.33 324.36 260.57 325.64 261.92 325.61 262.64 325.04 263.19" style="fill: rgb(0, 255, 136); transform-origin: 326.36px 261.31px;" id="elthbko1rlfcb" class="animable"></polygon><path d="M249.05,296l-4-4.18.13-3.08,3.32-3.18.07-1.59-1.68-1.76h-3.32l.07-1.7L240.5,279a58.6,58.6,0,0,0,10.08,29.14l1.28-7.46-2.88-3Z" style="fill: rgb(0, 255, 136); transform-origin: 246.18px 293.57px;" id="el7wckv6xzdi" class="animable"></path><path d="M362.94,273l-3.32,1.48h-1.17l-1.24,1.19,0,1.06,1.66,1.73-.09,2.15-2.59,1.65,0-.65-1.85-1.94h-1.13l-.11,2.45,2,2.73-.07,1.55.5.52h-.71l-1.4-1.8.05-1.32-.94-1.21.12-2.81-.6-2.81h-.34l-.64.62h-.59l.08-1.82-1.32-1.38,0-1H349l-.76.73h-1.54l-4.17,4-.1,2.26-1.24,2.17-.82-.37-1.24-3.05-.69-3.93-1.35-.52-2.24-3.48h-5.12l-.46-.53h-2l-1.52-1.05-.42-1.36h-1l-.47.35.93,2.57,1.61,2,1.73-1.66h.45l.25.75,1.56,1.38-1.2,1.41-.21.85-3.11,2.27-5.4,1.78-.29-3.06-1.83-2.34-1-2.78-2-2.77,0,.65,1.79,6.82,3.26,5.08L324,281l-.1,2.21-1.9,2.89-5.22,4.77-.1,2.35.9,4.07-3.33,3.59-.11,2.48-3.1,3.81,0,.86-4.14,2.35h-1.95l-.6-1.06L302,299l.1-2.38.52-.73.09-2.15-2.18-5.16.06-1.37.5-.32,0-1.3-.37-.62h-1.92l-.89-1.19h-2.43l-3.21.57h-3.88L285.17,279l.23-5.37,7.05-8.66,4.32-1.19h4.66l.32,2.3,4.67,2,1.08-1H310l.75.78h4.4l1.45-2.51.06-1.19-.33-.35h-.49l-.36.34h-.77l-.38-.39h-.67l-.4.39h-.52l-.42-.45-.94-1,.08-2H310l-.66.34.24,1.56-.64.28,0,.75-.46-.24L307.35,261l0-1.13-1.48-1L304.08,257h-.74l0,.87,1,.85.08.66,2.23,1.7-.22.47-.1-.47h-.57l.09.73-1.08,1.11-.33.8-.94-1h1.2l.53-.5,0-.94-3-2.34-.25-.81h-1.05l-1.09.83H299l-.61-.28-1,.62,0,.62-1.63,1.57,0,.81-1.31,1.37H293.2l-.52.33h-.63l-.28-.45-1.4-.28.08-1.85.86-.82,0-1.6h3.89l.22-2.39-1.63-1.54,6.32-4.16,1.65-.69.1-2.19.88-.85-.12,2.8,3.29-.45h2.88l.09-2.14.68-.65.42.44h.57l.07-1.72h2.21l.82-.78H310l-.74-.77.09-1.9,2.1-2,0-1H310l-3.8,3.64L306,247.8l-1.75.65-1-2.59-2.26.89-.85-.89.1-2.43,6.52-7.69,7.13-2.1L320,237l-1.14,1.09h-3.76l3,3.16,3.48-2,12.26-3.8,13.74-5.79a58.48,58.48,0,0,0-43.32-18.75,62.7,62.7,0,0,0-27.47,6.36l2.85-.3,9,2.65-5,15-6.65,2.7-4.51,2.21-1.63,5.18-3.61-1.35-2.51-5.61.72-1.72-2-8.53-1.46-.31a65.83,65.83,0,0,0-7.09,7.37l3.32,3-1.84,5.14-4.17-2.75.91-1.88-.54-.56a64.5,64.5,0,0,0-7.11,12.44l2,1.19,2.48-2.37.25-6.07,8,3.59,4.18,5.23-1.89,1.81h-3.8l1.06,3.53-11,10.36,1.28,3.2-.78.75-2.34-2.45h-4.23c-.11,1.14-.2,2.3-.25,3.46s-.06,2.53,0,3.78h.16l1.27-1.21h1.86l-1,1-.11,2.59h2.26l.72,2.8h1.81l1.77,1.86,1.92-1.88,11.37,4.26,1.23,2.75,4.17,2,2.64.16,2.86,2.48-2.78,4.42-1.56,5.07-4.17,1.62-9.1,10.77a58,58,0,0,0,31.09,17.6l.92-.44,8.64-.61,5.86-.49,1.88-1,4.84.17,3.61,1-.86.32,1.43.71a65.07,65.07,0,0,0,46.53-41.92h0l-1.2-2.22,2.42-1.58A61.61,61.61,0,0,0,362.94,273ZM330.39,228.3l5.26-1.86H338l-6.93,3.07L329.59,232l1.42,1.74-1.85-.24-1-1.66Zm-17.45-6.25-1.59.71-3.31-1.1Zm-6.35,0,3.53,1.56,1.73,1.13-2,.32-.43-1.13-1.12-.28-1.53,2.63-2.27-2.88-.28-1Zm-56.26,53.53-1-.23-4.1-1.67.91-.39,4.26,1.46Zm2.78,1.07h-2.18l.61-1.07,2.43.25Zm39.74-29.83,1.18-.57,1,2.05,1.84,3.53-3.67,1.46.77-3.52-1.3-1.28Zm-2.26,2.69h2l-.46,2.26h-1.82Zm-4.35-8.63-.88.27-1.61-.33-.34-.93.4-.44,3.33-.77,1.67.77-.33.62-1.77.23Zm36.56,60.27-1.71,3.05h-1.16l-.49-.51.1-2.24.59-.57-.36-.38.1-2,2.28-1.17.91-1.4.24,1.54Zm33.47-9.69h-1.18l-2.74-4-1.71-2.63,1.41.12,4.29,4.82Z" style="fill: rgb(0, 255, 136); transform-origin: 301.664px 271.579px;" id="el63codvlm15a" class="animable"></path><g id="ell9s8veo9dm"><path d="M324.35,309.19l-6.24,21.27a60.11,60.11,0,0,0,7.87-3.1Z" style="fill: rgb(38, 50, 56); opacity: 0.3; transform-origin: 322.045px 319.825px;" class="animable"></path></g><g id="elnitp1rxs90o"><path d="M292.13,167.57c.36-8.6,7.15-15.57,15.16-15.57s14.2,7,13.84,15.57c-.67,15.68-15.54,24.42-15.54,24.42S291.46,183.25,292.13,167.57Z" style="fill: rgb(0, 255, 136); opacity: 0.9; transform-origin: 306.626px 171.995px;" class="animable"></path></g><path d="M355.15,341.36l-30.8-32.18-2,45.5,10.88-10.43,3.2,8.6a3.65,3.65,0,0,0,4.85,2h0a3.93,3.93,0,0,0,2.26-4.94l-3.2-8.6Z" style="fill: rgb(255, 255, 255); transform-origin: 338.75px 332.167px;" id="el77bs9o8l8hj" class="animable"></path></g><g id="freepik--Character--inject-11" class="animable" style="transform-origin: 182.915px 254.253px;"><path d="M158.24,151.3c-1.85,5.11-3.72,10.32-5.5,15.47-.91,2.58-1.77,5.16-2.6,7.73s-1.6,5.13-2.23,7.61c-.32,1.23-.59,2.45-.76,3.52-.09.54-.12,1-.16,1.36s0,1,0,1.52a48.89,48.89,0,0,0,1.24,7.37c1.21,5.14,2.77,10.45,4.31,15.68l-5.34,2.51a94,94,0,0,1-7.91-15.36,47.84,47.84,0,0,1-2.67-8.83,22.74,22.74,0,0,1-.33-2.63,19.59,19.59,0,0,1,.06-2.8c.15-1.7.39-3.22.66-4.7A157.22,157.22,0,0,1,141.46,163c1.72-5.4,3.57-10.67,5.66-16Z" style="fill: rgb(181, 91, 82); transform-origin: 147.253px 180.535px;" id="eleo0geoxsqrj" class="animable"></path><path d="M150.9,209l4.45,5.74-8.2,3.88s-2.34-3.78-.93-7.32Z" style="fill: rgb(181, 91, 82); transform-origin: 150.559px 213.81px;" id="el06u82g5qth5f" class="animable"></path><polygon points="158.07 219.69 152.09 223.42 147.15 218.61 155.35 214.73 158.07 219.69" style="fill: rgb(181, 91, 82); transform-origin: 152.61px 219.075px;" id="el47jytmrijt" class="animable"></polygon><path d="M186.67,113.65c-.07.63.2,1.17.62,1.22s.8-.43.87-1.06-.21-1.17-.62-1.22S186.74,113,186.67,113.65Z" style="fill: rgb(38, 50, 56); transform-origin: 187.415px 113.73px;" id="el1kvpd1so48" class="animable"></path><path d="M186.82,114.82a22.61,22.61,0,0,0,2.41,5.71,3.65,3.65,0,0,1-3.07.24Z" style="fill: rgb(160, 39, 36); transform-origin: 187.695px 117.91px;" id="elmcblen8ljv" class="animable"></path><path d="M184.75,109.9a.36.36,0,0,1-.21-.17.37.37,0,0,1,.14-.51,3.72,3.72,0,0,1,3.39-.21.39.39,0,0,1,.16.51.38.38,0,0,1-.5.16h0a2.94,2.94,0,0,0-2.69.19A.37.37,0,0,1,184.75,109.9Z" style="fill: rgb(38, 50, 56); transform-origin: 186.379px 109.308px;" id="elvlhksgnrfa" class="animable"></path><path d="M166.47,118.31c1.13,5.74,2.25,16.27-1.77,20.1,0,0,1.58,5.83,12.25,5.83,11.74,0,5.61-5.83,5.61-5.83-6.41-1.53-6.24-6.28-5.13-10.75Z" style="fill: rgb(181, 91, 82); transform-origin: 174.43px 131.275px;" id="elssgrkk7o28" class="animable"></path><path d="M161.31,141.37c-1.06-.7.32-4.37,1.38-5,2.81-1.7,15.27-2.27,20.46,1a5.14,5.14,0,0,1,1,4.31Z" style="fill: rgb(38, 50, 56); transform-origin: 172.6px 138.341px;" id="eltkmslprahxs" class="animable"></path><path d="M132.31,407.62a2.48,2.48,0,0,0,1.94-.21.75.75,0,0,0,.14-.87.83.83,0,0,0-.5-.52c-1.09-.45-3.47.66-3.57.71a.18.18,0,0,0-.11.17.2.2,0,0,0,.11.17A9.91,9.91,0,0,0,132.31,407.62Zm1.21-1.32.22.06a.54.54,0,0,1,.3.31c.12.33,0,.44,0,.47-.4.38-2,.13-3.11-.26A6.21,6.21,0,0,1,133.52,406.3Z" style="fill: rgb(0, 255, 136); transform-origin: 132.34px 406.821px;" id="elxaxaw40vyxe" class="animable"></path><path d="M130.37,407.08h.09c.87-.3,2.7-1.74,2.68-2.63a.6.6,0,0,0-.51-.58,1,1,0,0,0-.82.11c-1,.58-1.57,2.79-1.59,2.88a.17.17,0,0,0,.05.18A.19.19,0,0,0,130.37,407.08Zm2.08-2.88.08,0c.23.06.24.18.24.22,0,.53-1.19,1.65-2.09,2.12a4.45,4.45,0,0,1,1.32-2.27A.62.62,0,0,1,132.45,404.2Z" style="fill: rgb(0, 255, 136); transform-origin: 131.676px 405.454px;" id="els01022xos6h" class="animable"></path><path d="M185.59,408.62c1,0,2-.14,2.31-.59a.71.71,0,0,0,0-.81.93.93,0,0,0-.59-.44c-1.3-.35-4,1.21-4.16,1.28a.17.17,0,0,0-.09.19.17.17,0,0,0,.14.15A13.77,13.77,0,0,0,185.59,408.62Zm1.25-1.52a1.37,1.37,0,0,1,.36,0,.55.55,0,0,1,.36.26c.13.23.08.35,0,.41-.37.51-2.35.52-3.81.32A8.29,8.29,0,0,1,186.84,407.1Z" style="fill: rgb(0, 255, 136); transform-origin: 185.541px 407.674px;" id="el8u4cmf3k9b6" class="animable"></path><path d="M183.22,408.41l.08,0c.94-.43,2.82-2.12,2.68-3,0-.21-.18-.47-.7-.52a1.36,1.36,0,0,0-1,.32c-1,.82-1.21,2.93-1.22,3a.21.21,0,0,0,.08.17A.21.21,0,0,0,183.22,408.41Zm1.92-3.19h.11c.33,0,.35.16.36.21.09.53-1.19,1.86-2.16,2.45a4.36,4.36,0,0,1,1-2.43A1,1,0,0,1,185.14,405.22Z" style="fill: rgb(0, 255, 136); transform-origin: 184.524px 406.647px;" id="elz477puj4er" class="animable"></path><polygon points="174.58 408.22 182.44 408.22 183.22 390.03 175.37 390.03 174.58 408.22" style="fill: rgb(181, 91, 82); transform-origin: 178.9px 399.125px;" id="elmhdwklbaqbo" class="animable"></polygon><polygon points="121.6 405.43 129.44 406.71 135.01 389.41 127.16 388.13 121.6 405.43" style="fill: rgb(181, 91, 82); transform-origin: 128.305px 397.42px;" id="elg98cgta4qrk" class="animable"></polygon><path d="M130,405.9l-8.71-1.43a.68.68,0,0,0-.75.42l-2.66,6.63a1.16,1.16,0,0,0,.9,1.57c3,.44,4.56.51,8.38,1.14,2.36.39,8.36,1.79,11.65,2s3.93-3,2.6-3.4c-5.95-1.71-8.61-4.21-10.24-6.24A1.89,1.89,0,0,0,130,405.9Z" style="fill: rgb(38, 50, 56); transform-origin: 129.93px 410.35px;" id="eljf4meywqqrg" class="animable"></path><path d="M182.39,407.31h-8.58a.68.68,0,0,0-.67.54l-1.55,7a1.14,1.14,0,0,0,1.13,1.39c3.09-.05,7.56-.23,11.45-.23,4.55,0,6.47.25,11.8.25,3.22,0,4.12-3.26,2.77-3.56-6.15-1.34-9.15-1.48-14.46-4.76A3.71,3.71,0,0,0,182.39,407.31Z" style="fill: rgb(38, 50, 56); transform-origin: 185.454px 411.785px;" id="ely7kmu0qe37q" class="animable"></path><path d="M150.64,140.19c-7.17,2.36-11.47,21.63-11.47,21.63l15.75,9.85a32.32,32.32,0,0,0,6.47-15.18C163,146.45,158,137.77,150.64,140.19Z" style="fill: rgb(0, 255, 136); transform-origin: 150.431px 155.725px;" id="el158sryqntpv" class="animable"></path><g id="elun9nwlxiumh"><g style="opacity: 0.4; transform-origin: 150.431px 155.725px;" class="animable"><path d="M150.64,140.19c-7.17,2.36-11.47,21.63-11.47,21.63l15.75,9.85a32.32,32.32,0,0,0,6.47-15.18C163,146.45,158,137.77,150.64,140.19Z" style="fill: rgb(255, 255, 255); transform-origin: 150.431px 155.725px;" id="el1j2821bgn1w" class="animable"></path></g></g><g id="eltdyig8xvi2i"><path d="M154.94,160.39a23.1,23.1,0,0,0-3.46,9.13l3.44,2.15a31.49,31.49,0,0,0,6-12.94Z" style="opacity: 0.2; transform-origin: 156.2px 165.2px;" class="animable"></path></g><path d="M194.64,140.59s8.36,9.44.46,67.88h-42c-.29-6.45,3.76-37.9-2.46-68.28a109,109,0,0,1,14.06-1.78,154.11,154.11,0,0,1,17.86,0A79.16,79.16,0,0,1,194.64,140.59Z" style="fill: rgb(0, 255, 136); transform-origin: 174.568px 173.311px;" id="elci76yzy7op" class="animable"></path><g id="elm1m7gvaox"><g style="opacity: 0.4; transform-origin: 174.568px 173.311px;" class="animable"><path d="M194.64,140.59s8.36,9.44.46,67.88h-42c-.29-6.45,3.76-37.9-2.46-68.28a109,109,0,0,1,14.06-1.78,154.11,154.11,0,0,1,17.86,0A79.16,79.16,0,0,1,194.64,140.59Z" style="fill: rgb(255, 255, 255); transform-origin: 174.568px 173.311px;" id="el8zgae9oss2n" class="animable"></path></g></g><g id="eltlglwj3wd7o"><path d="M198.31,158.45l-.16-.14-9.55,2.29c-.54,6.46,6.1,14.17,9.52,17.7A182.54,182.54,0,0,0,198.31,158.45Z" style="opacity: 0.2; transform-origin: 193.531px 168.305px;" class="animable"></path></g><g id="elegr3b2oot36"><polygon points="183.22 390.04 182.82 399.41 174.96 399.41 175.36 390.04 183.22 390.04" style="opacity: 0.2; transform-origin: 179.09px 394.725px;" class="animable"></polygon></g><g id="ell2xpzgzsg1"><polygon points="127.16 388.13 135.01 389.42 132.13 398.33 124.29 397.05 127.16 388.13" style="opacity: 0.2; transform-origin: 129.65px 393.23px;" class="animable"></polygon></g><path d="M165.81,110c-.37,7.78-1,12.32,2.48,16.72,5.21,6.62,15.15,4.13,17.84-3.39,2.43-6.76,2.64-18.36-4.59-22.27A10.63,10.63,0,0,0,165.81,110Z" style="fill: rgb(181, 91, 82); transform-origin: 176.583px 115.153px;" id="el0jao6zzbylx6" class="animable"></path><path d="M180.27,116.83c-3.16,4.84-1.39,6.45-3.16,8.67s-13.62,5.39-13.73-.22a13.05,13.05,0,0,0-4.83-10.5,6.11,6.11,0,0,1,1.39-9.73c4.22-2.33-1.79-3.47.79-7.22,3.84-5.56,9.09-7.39,13.48-3.55s11.51,6,16.62,1.11,4.22,14.18-8.5,13.31C187.8,114.17,178.66,111.5,180.27,116.83Z" style="fill: rgb(38, 50, 56); transform-origin: 175.237px 110.335px;" id="elv7m3vlqhai9" class="animable"></path><path d="M162.61,103.12c-2.07,1.45-5.1-3.37-4.38-6-2.62,3-2,7.92,3.36,8S162.61,103.12,162.61,103.12Z" style="fill: rgb(38, 50, 56); transform-origin: 160.499px 101.121px;" id="elhho9c7dgrdh" class="animable"></path><path d="M177.74,113.16a8.79,8.79,0,0,0,1.23,5.52c1.35,2.17,3.32,1.33,4-.87.64-2,.71-5.51-1.16-6.91S178,110.85,177.74,113.16Z" style="fill: rgb(181, 91, 82); transform-origin: 180.533px 115.138px;" id="ell0fsjrwa9hg" class="animable"></path><path d="M180.2,208.47s-8.91,60-13.8,82.49C161,315.58,136.22,397,136.22,397l-14-3s16.17-66.38,20.67-100.8c3.45-26.44,10.26-84.73,10.26-84.73Z" style="fill: rgb(38, 50, 56); transform-origin: 151.21px 302.735px;" id="elzczkks6lhkb" class="animable"></path><path d="M139.59,392.35c.06,0-2.62,5.08-2.62,5.08L121.15,394l1.34-4.76Z" style="fill: rgb(0, 255, 136); transform-origin: 130.37px 393.335px;" id="elbx9wq9t22y" class="animable"></path><g id="eli5brf7t7c8o"><path d="M174.57,229.85c-10.3,2-9.21,40.45-8,60.21,3-14,7.32-40.85,10.29-59.93A3.53,3.53,0,0,0,174.57,229.85Z" style="opacity: 0.3; transform-origin: 171.337px 259.916px;" class="animable"></path></g><path d="M195.1,208.47s3.27,58.71,2.41,82.66C196.62,316,185.74,397.6,185.74,397.6h-13.3s1.69-80.11,1.1-104.57c-.65-26.67-8.64-84.56-8.64-84.56Z" style="fill: rgb(38, 50, 56); transform-origin: 181.277px 303.035px;" id="elgwj91qrs9uk" class="animable"></path><path d="M188.3,392.3c.06,0-.75,5.52-.75,5.52H171.37l-.44-4.93Z" style="fill: rgb(0, 255, 136); transform-origin: 179.617px 395.06px;" id="elp8exihprwje" class="animable"></path><path d="M198.91,148.55c2.25,5.22,4.7,10.6,7.24,15.77a137.36,137.36,0,0,0,8.24,14.87c.75,1.14,1.52,2.23,2.31,3.25l.6.74c.2.23.26.33.46.54.34.38.81.8,1.27,1.23,1.92,1.74,4.26,3.45,6.58,5.16,4.68,3.39,9.59,6.75,14.4,10.16l-2.71,5.24a138.12,138.12,0,0,1-16.64-7.45,72.38,72.38,0,0,1-8.14-4.93,26.51,26.51,0,0,1-2.12-1.69c-.34-.3-.78-.74-1.09-1.05l-.87-.95c-1.12-1.26-2.15-2.53-3.13-3.82a122.06,122.06,0,0,1-9.76-15.93c-1.4-2.72-2.77-5.44-4-8.22S189,156,187.88,153Z" style="fill: rgb(181, 91, 82); transform-origin: 213.945px 177.03px;" id="elk1xfbg2gr9" class="animable"></path><path d="M183.18,148.44c-6.06,9,8.13,25.33,8.13,25.33l15.87-11a67,67,0,0,0-5.39-16.12C196.62,135.78,187.8,141.61,183.18,148.44Z" style="fill: rgb(0, 255, 136); transform-origin: 194.427px 157.194px;" id="el03cojq6ekiy5" class="animable"></path><g id="el3nk80xvu0un"><g style="opacity: 0.4; transform-origin: 194.427px 157.194px;" class="animable"><path d="M183.18,148.44c-6.06,9,8.13,25.33,8.13,25.33l15.87-11a67,67,0,0,0-5.39-16.12C196.62,135.78,187.8,141.61,183.18,148.44Z" style="fill: rgb(255, 255, 255); transform-origin: 194.427px 157.194px;" id="el7kuc9913ett" class="animable"></path></g></g><path d="M235.24,199.22,245,200.6l-2.55,8.2s-6.93,0-9-5.34Z" style="fill: rgb(181, 91, 82); transform-origin: 239.225px 204.01px;" id="elogljwbaofor" class="animable"></path><polygon points="248.03 203.22 245.92 209.94 242.42 208.8 244.97 200.6 248.03 203.22" style="fill: rgb(181, 91, 82); transform-origin: 245.225px 205.27px;" id="ely9onlgtozci" class="animable"></polygon></g><defs>     <filter id="active" height="200%">         <feMorphology in="SourceAlpha" result="DILATED" operator="dilate" radius="2"></feMorphology>                <feFlood flood-color="#32DFEC" flood-opacity="1" result="PINK"></feFlood>        <feComposite in="PINK" in2="DILATED" operator="in" result="OUTLINE"></feComposite>        <feMerge>            <feMergeNode in="OUTLINE"></feMergeNode>            <feMergeNode in="SourceGraphic"></feMergeNode>        </feMerge>    </filter>    <filter id="hover" height="200%">        <feMorphology in="SourceAlpha" result="DILATED" operator="dilate" radius="2"></feMorphology>                <feFlood flood-color="#ff0000" flood-opacity="0.5" result="PINK"></feFlood>        <feComposite in="PINK" in2="DILATED" operator="in" result="OUTLINE"></feComposite>        <feMerge>            <feMergeNode in="OUTLINE"></feMergeNode>            <feMergeNode in="SourceGraphic"></feMergeNode>        </feMerge>            <feColorMatrix type="matrix" values="0   0   0   0   0                0   1   0   0   0                0   0   0   0   0                0   0   0   1   0 "></feColorMatrix>    </filter></defs></svg>